<svg xmlns="http://www.w3.org/2000/svg" width="320" height="240" viewBox="0 0 320 240"><defs><linearGradient id="g" x1="0" y1="0" x2="1" y2="1"><stop offset="0" stop-color="#dee9ec"/><stop offset="1" stop-color="#b8d2d5"/></linearGradient></defs><rect width="320" height="240" fill="url(#g)"/><line x1="0" y1="0" x2="0" y2="240" stroke="#b8d2d5" stroke-width="1" opacity="0.35"/><line x1="45" y1="0" x2="45" y2="240" stroke="#b8d2d5" stroke-width="1" opacity="0.35"/><line x1="90" y1="0" x2="90" y2="240" stroke="#b8d2d5" stroke-width="1" opacity="0.35"/><line x1="135" y1="0" x2="135" y2="240" stroke="#b8d2d5" stroke-width="1" opacity="0.35"/><line x1="180" y1="0" x2="180" y2="240" stroke="#b8d2d5" stroke-width="1" opacity="0.35"/><line x1="225" y1="0" x2="225" y2="240" stroke="#b8d2d5" stroke-width="1" opacity="0.35"/><line x1="270" y1="0" x2="270" y2="240" stroke="#b8d2d5" stroke-width="1" opacity="0.35"/><line x1="315" y1="0" x2="315" y2="240" stroke="#b8d2d5" stroke-width="1" opacity="0.35"/><line x1="0" y1="0" x2="320" y2="0" stroke="#b8d2d5" stroke-width="1" opacity="0.35"/><line x1="0" y1="45" x2="320" y2="45" stroke="#b8d2d5" stroke-width="1" opacity="0.35"/><line x1="0" y1="90" x2="320" y2="90" stroke="#b8d2d5" stroke-width="1" opacity="0.35"/><line x1="0" y1="135" x2="320" y2="135" stroke="#b8d2d5" stroke-width="1" opacity="0.35"/><line x1="0" y1="180" x2="320" y2="180" stroke="#b8d2d5" stroke-width="1" opacity="0.35"/><line x1="0" y1="225" x2="320" y2="225" stroke="#b8d2d5" stroke-width="1" opacity="0.35"/><circle cx="0" cy="12" r="2" fill="#1a4d5c" opacity="0.18"/><circle cx="84" cy="99" r="1" fill="#1a4d5c" opacity="0.12"/><circle cx="70" cy="54" r="2" fill="#1a4d5c" opacity="0.12"/><circle cx="314" cy="233" r="1" fill="#1a4d5c" opacity="0.08"/><circle cx="215" cy="109" r="1" fill="#1a4d5c" opacity="0.18"/><circle cx="126" cy="152" r="2" fill="#1a4d5c" opacity="0.08"/><circle cx="161" cy="38" r="1" fill="#1a4d5c" opacity="0.12"/><circle cx="124" cy="54" r="1" fill="#1a4d5c" opacity="0.18"/><circle cx="143" cy="39" r="2" fill="#1a4d5c" opacity="0.12"/><circle cx="86" cy="124" r="2" fill="#1a4d5c" opacity="0.18"/><circle cx="39" cy="34" r="2" fill="#1a4d5c" opacity="0.12"/><circle cx="6" cy="96" r="1" fill="#1a4d5c" opacity="0.18"/><circle cx="71" cy="91" r="1" fill="#1a4d5c" opacity="0.18"/><circle cx="160" cy="92" r="2" fill="#1a4d5c" opacity="0.12"/><circle cx="129" cy="180" r="1" fill="#1a4d5c" opacity="0.12"/><circle cx="219" cy="150" r="1" fill="#1a4d5c" opacity="0.08"/><circle cx="312" cy="6" r="1" fill="#1a4d5c" opacity="0.12"/><circle cx="24" cy="211" r="2" fill="#1a4d5c" opacity="0.08"/><circle cx="162" cy="121" r="1" fill="#1a4d5c" opacity="0.08"/><circle cx="78" cy="144" r="2" fill="#1a4d5c" opacity="0.12"/></svg>